<?xml version="1.0" encoding="utf-8"?>
<!-- Generator: Adobe Illustrator 22.1.0, SVG Export Plug-In . SVG Version: 6.00 Build 0)  -->
<svg version="1.1" id="Camada_1" xmlns="http://www.w3.org/2000/svg" xmlns:xlink="http://www.w3.org/1999/xlink" x="0px" y="0px"
	 viewBox="0 0 144 53" style="enable-background:new 0 0 144 53;" xml:space="preserve">
<style type="text/css">
	.st0{fill:#FFFFFF;}
</style>
<g>
	<g>
		<path class="st0" d="M31.6,20.6c0,3.7-1,6.5-3,8.4c-2,2-4.8,3-8.5,3H13V10.1h7.6c3.5,0,6.2,0.9,8.1,2.7
			C30.7,14.6,31.6,17.2,31.6,20.6z M25.5,20.8c0-2-0.4-3.5-1.2-4.5s-2-1.5-3.6-1.5h-1.7v12.3h1.3c1.8,0,3.1-0.5,4-1.6
			S25.5,23,25.5,20.8z"/>
		<path class="st0" d="M48.5,32h-13V10.1h13v4.7h-7.1v3.4H48v4.7h-6.6v4.1h7.1V32z"/>
		<path class="st0" d="M64.7,10.1h6.6L64.1,32h-7L50,10.1h6.7l3,11.1c0.6,2.5,1,4.2,1,5.2c0.1-0.7,0.2-1.6,0.4-2.6
			c0.2-1,0.4-1.9,0.6-2.5L64.7,10.1z"/>
		<path class="st0" d="M77.7,32h-3.6V10.1h12.4v3h-8.8V20H86v3h-8.3V32z"/>
		<path class="st0" d="M102.9,32H90.5V10.1h12.4v3h-8.8v6h8.3v3h-8.3V29h8.8V32z"/>
		<path class="st0" d="M120.3,26.1c0,1.9-0.7,3.5-2.1,4.6s-3.4,1.7-5.8,1.7c-2.5,0-4.5-0.4-6.1-1.2v-3.4c1,0.5,2.1,0.8,3.2,1.1
			s2.2,0.4,3.1,0.4c1.4,0,2.5-0.3,3.1-0.8c0.7-0.5,1-1.3,1-2.2c0-0.8-0.3-1.5-0.9-2.1c-0.6-0.6-1.9-1.2-3.8-2
			c-2-0.8-3.4-1.7-4.2-2.8c-0.8-1-1.2-2.3-1.2-3.7c0-1.8,0.6-3.3,1.9-4.3c1.3-1,3-1.6,5.2-1.6c2.1,0,4.2,0.5,6.3,1.4l-1.1,2.9
			c-1.9-0.8-3.7-1.2-5.2-1.2c-1.2,0-2,0.3-2.6,0.8c-0.6,0.5-0.9,1.2-0.9,2c0,0.6,0.1,1.1,0.4,1.5c0.2,0.4,0.6,0.8,1.2,1.1
			c0.5,0.4,1.5,0.8,3,1.4c1.6,0.7,2.8,1.3,3.5,1.9c0.7,0.6,1.3,1.2,1.6,2C120.1,24.2,120.3,25.1,120.3,26.1z"/>
		<path class="st0" d="M132.1,32h-3.6V13.2h-6.4v-3.1h16.5v3.1h-6.4V32z"/>
	</g>
</g>
<g>
	<g>
		<path class="st0" d="M13.6,38.8h1.9c0.9,0,1.5,0.1,1.9,0.4c0.4,0.3,0.6,0.6,0.6,1.2c0,0.4-0.1,0.7-0.3,0.9s-0.5,0.4-0.8,0.5v0
			c0.4,0.1,0.8,0.2,1,0.5s0.3,0.6,0.3,1c0,0.6-0.2,1-0.6,1.3s-0.9,0.5-1.6,0.5h-2.3V38.8z M14.6,41.4h1c0.4,0,0.7-0.1,0.9-0.2
			c0.2-0.1,0.3-0.4,0.3-0.7c0-0.3-0.1-0.5-0.3-0.6c-0.2-0.1-0.6-0.2-1-0.2h-0.9V41.4z M14.6,42.2v2h1.1c0.4,0,0.8-0.1,1-0.2
			c0.2-0.2,0.3-0.4,0.3-0.8c0-0.3-0.1-0.6-0.3-0.7c-0.2-0.2-0.6-0.2-1-0.2H14.6z"/>
		<path class="st0" d="M26.4,45.1h-3.5v-6.3h3.5v0.9h-2.5v1.7h2.4v0.9h-2.4v2h2.5V45.1z"/>
		<path class="st0" d="M31.3,45.1v-6.3h1v5.4h2.7v0.9H31.3z"/>
		<path class="st0" d="M45.1,42c0,1-0.3,1.8-0.8,2.4c-0.5,0.6-1.2,0.8-2.2,0.8c-0.9,0-1.7-0.3-2.2-0.8s-0.8-1.4-0.8-2.4
			c0-1,0.3-1.8,0.8-2.4c0.5-0.6,1.2-0.8,2.2-0.8c0.9,0,1.7,0.3,2.2,0.8C44.8,40.1,45.1,40.9,45.1,42z M40.3,42
			c0,0.8,0.2,1.4,0.5,1.8c0.3,0.4,0.8,0.6,1.4,0.6c0.6,0,1.1-0.2,1.4-0.6c0.3-0.4,0.5-1,0.5-1.8c0-0.8-0.2-1.4-0.5-1.7
			c-0.3-0.4-0.8-0.6-1.4-0.6c-0.6,0-1.1,0.2-1.4,0.6C40.5,40.6,40.3,41.2,40.3,42z"/>
		<path class="st0" d="M60.7,45.1h-1v-2.8h-2.9v2.8h-1v-6.3h1v2.6h2.9v-2.6h1V45.1z"/>
		<path class="st0" d="M71.4,42c0,1-0.3,1.8-0.8,2.4c-0.5,0.6-1.2,0.8-2.2,0.8c-0.9,0-1.7-0.3-2.2-0.8s-0.8-1.4-0.8-2.4
			c0-1,0.3-1.8,0.8-2.4c0.5-0.6,1.2-0.8,2.2-0.8c0.9,0,1.7,0.3,2.2,0.8C71.1,40.1,71.4,40.9,71.4,42z M66.6,42
			c0,0.8,0.2,1.4,0.5,1.8c0.3,0.4,0.8,0.6,1.4,0.6c0.6,0,1.1-0.2,1.4-0.6c0.3-0.4,0.5-1,0.5-1.8c0-0.8-0.2-1.4-0.5-1.7
			c-0.3-0.4-0.8-0.6-1.4-0.6c-0.6,0-1.1,0.2-1.4,0.6C66.8,40.6,66.6,41.2,66.6,42z"/>
		<path class="st0" d="M77.3,42.6v2.5h-1v-6.3H78c0.8,0,1.4,0.2,1.8,0.5s0.6,0.8,0.6,1.4c0,0.8-0.4,1.3-1.2,1.7l1.8,2.8h-1.2
			l-1.5-2.5H77.3z M77.3,41.7H78c0.5,0,0.8-0.1,1-0.3c0.2-0.2,0.3-0.4,0.3-0.8c0-0.4-0.1-0.6-0.3-0.8c-0.2-0.2-0.6-0.2-1-0.2h-0.7
			V41.7z"/>
		<path class="st0" d="M85.3,45.1v-6.3h1v6.3H85.3z"/>
		<path class="st0" d="M95.5,45.1H91v-0.7l3.2-4.7h-3.1v-0.9h4.3v0.7l-3.2,4.7h3.3V45.1z"/>
		<path class="st0" d="M105.6,42c0,1-0.3,1.8-0.8,2.4c-0.5,0.6-1.2,0.8-2.2,0.8c-0.9,0-1.7-0.3-2.2-0.8s-0.8-1.4-0.8-2.4
			c0-1,0.3-1.8,0.8-2.4c0.5-0.6,1.2-0.8,2.2-0.8c0.9,0,1.7,0.3,2.2,0.8C105.4,40.1,105.6,40.9,105.6,42z M100.9,42
			c0,0.8,0.2,1.4,0.5,1.8c0.3,0.4,0.8,0.6,1.4,0.6c0.6,0,1.1-0.2,1.4-0.6c0.3-0.4,0.5-1,0.5-1.8c0-0.8-0.2-1.4-0.5-1.7
			c-0.3-0.4-0.8-0.6-1.4-0.6c-0.6,0-1.1,0.2-1.4,0.6C101,40.6,100.9,41.2,100.9,42z"/>
		<path class="st0" d="M115.7,45.1h-1.3l-3.1-5h0l0,0.3c0,0.5,0.1,1,0.1,1.5v3.3h-0.9v-6.3h1.2l3.1,5h0c0-0.1,0-0.3,0-0.7
			c0-0.4,0-0.7,0-1v-3.3h0.9V45.1z"/>
		<path class="st0" d="M123,45.1h-1v-5.4h-1.8v-0.9h4.7v0.9H123V45.1z"/>
		<path class="st0" d="M132.9,45.1h-3.5v-6.3h3.5v0.9h-2.5v1.7h2.4v0.9h-2.4v2h2.5V45.1z"/>
	</g>
</g>
</svg>
