<?xml version="1.0" encoding="UTF-8"?>
<svg width="653px" height="109px" viewBox="0 0 653 109" version="1.1" xmlns="http://www.w3.org/2000/svg" xmlns:xlink="http://www.w3.org/1999/xlink">
    <!-- Generator: Sketch 51.3 (57544) - http://www.bohemiancoding.com/sketch -->
    <title>ixda_logo copy</title>
    <desc>Created with Sketch.</desc>
    <defs></defs>
    <g id="Page-1" stroke="none" stroke-width="1" fill="none" fill-rule="evenodd">
        <g id="ixda_logo-copy" fill-rule="nonzero">
            <path d="M0.028,2.635 L16.051,2.635 L16.051,108.291 L0.028,108.291 L0.028,2.635 Z M161.74,2.635 L198.692,2.635 C212.635,2.635 224.067,8.869 230.889,20.444 C236.084,29.348 236.526,33.356 236.526,55.463 C236.526,79.209 235.34,83.368 230.59,90.785 C224.365,100.577 213.379,108.291 197.651,108.291 L161.74,108.291 L161.74,2.635 Z M177.769,93.157 L196.911,93.157 C205.961,93.157 212.343,90.044 216.498,83.959 C220.06,78.62 220.504,75.647 220.504,56.059 C220.504,37.064 220.061,32.466 215.754,26.677 C210.858,19.992 205.517,17.773 196.911,17.773 L177.769,17.773 L177.769,93.157 Z M313.028,84.698 L272.956,84.698 L264.796,108.291 L247.873,108.291 L286.315,2.635 L299.671,2.635 L338.106,108.291 L321.188,108.291 L313.028,84.698 Z M308.424,70.455 L293.146,24.297 L292.845,24.297 L277.559,70.455 L308.424,70.455 Z M405,2.72067856 L445.944174,2.72067856 C456.331243,2.81730246 464.133506,5.42610868 469.351197,10.5471755 C474.6172,15.7165542 477.250161,22.5525927 477.250161,31.0554961 C477.346785,35.4035717 476.308094,39.5583372 474.134056,43.5199171 C473.022881,45.4040832 471.428611,47.1915986 469.351197,48.8825169 C467.273783,50.6700591 464.713288,52.2884851 461.669635,53.7378437 L461.669635,54.0277139 C467.418757,55.5253844 471.766768,58.544836 474.713797,63.0861594 C477.467578,67.7724187 478.844448,72.869253 478.844448,78.3768155 C478.747824,87.5077742 475.897462,94.7303025 470.293275,100.044617 C464.737401,105.600491 457.80474,108.378387 449.495084,108.378387 L405,108.378387 L405,2.72067856 Z M421.015332,61.491873 L421.015332,93.2326661 L445.654303,93.2326661 C451.596673,93.1360422 455.944684,91.5176161 458.698465,88.3773393 C461.452246,85.2853744 462.829116,81.6137212 462.829116,77.3622696 C462.829116,73.014194 461.452246,69.2942295 458.698465,66.2022647 C455.944684,63.1586118 451.596673,61.5884969 445.654303,61.491873 L421.015332,61.491873 Z M421.015332,16.9967887 L421.015332,47.2157629 L444.132485,47.2157629 C449.978231,47.2157629 454.27793,45.6939593 457.031711,42.6503064 C459.833804,39.8482132 461.23483,36.3214937 461.23483,32.070042 C461.23483,27.8185903 459.833804,24.219404 457.031711,21.272375 C454.27793,18.5185938 449.978231,17.0934126 444.132485,16.9967887 L421.015332,16.9967887 Z M553.341104,62.2165487 L511.527319,62.2165487 L511.527319,108.378387 L495.511988,108.378387 L495.511988,2.72067856 L511.527319,2.72067856 L511.527319,48.0129061 L553.341104,48.0129061 L553.341104,2.72067856 L569.356435,2.72067856 L569.356435,108.378387 L553.341104,108.378387 L553.341104,62.2165487 Z M585.299299,95.0443552 L633.200359,16.9967887 L587.183456,16.9967887 L587.183456,2.72067856 L652.766602,2.72067856 L652.766602,14.7502942 L604.720607,93.2326661 L652.766602,93.2326661 L652.766602,108.378387 L585.299299,108.378387 L585.299299,95.0443552 Z" id="Combined-Shape" fill="#515E66"></path>
            <g id="Group" transform="translate(42.000000, 0.000000)">
                <path d="M48.711,23.762 C47.798,24.674 46.303,24.674 45.391,23.762 L35.869,14.238 C34.955,13.326 34.955,11.831 35.869,10.919 L45.391,1.398 C46.303,0.487 47.798,0.487 48.711,1.398 L58.234,10.919 C59.147,11.832 59.147,13.326 58.234,14.238 L48.711,23.762 Z" id="Shape" fill="#55C4C4"></path>
                <g transform="translate(0.000000, 15.000000)" fill="#55C4C4" id="Shape">
                    <path d="M0.3,13.404 C0.299,13.594 0.299,13.791 0.3,13.966 L0.3,13.404 Z"></path>
                    <path d="M13.536,93.303 C13.909,93.303 14.243,93.306 14.558,93.303 L13.536,93.303 Z"></path>
                    <path d="M78.016,0.2 C78.052,0.177 78.087,0.145 78.126,0.123 C78.089,0.144 78.052,0.178 78.016,0.2 Z"></path>
                    <path d="M15.487,93.178 C15.34,93.22 15.189,93.26 15.028,93.274 C15.185,93.257 15.34,93.218 15.487,93.178 Z"></path>
                    <path d="M0.355,14.656 C0.363,14.707 0.375,14.758 0.385,14.806 C0.375,14.758 0.36,14.708 0.355,14.656 Z"></path>
                    <path d="M0.3,78.958 C0.294,79.273 0.299,79.609 0.3,79.981 L0.3,78.958 Z"></path>
                    <path d="M78.399,93.134 C78.643,93.222 78.899,93.275 79.167,93.291 C78.896,93.284 78.64,93.229 78.399,93.134 Z"></path>
                    <path d="M16.491,92.636 C16.309,92.815 16.091,92.952 15.859,93.064 C16.073,92.969 16.282,92.819 16.491,92.636 Z"></path>
                    <path d="M93.799,78.808 L93.799,80.068 C93.799,79.593 93.811,79.188 93.799,78.808 Z"></path>
                    <path d="M80.559,93.303 L79.386,93.303 C79.743,93.31 80.124,93.303 80.559,93.303 Z"></path>
                    <path d="M76.91,90.993 L76.91,78.722 C76.91,77.452 77.95,76.412 79.222,76.412 L91.488,76.412 C92.439,76.412 93.26,76.998 93.613,77.825 C93.503,77.554 93.349,77.285 93.078,77.016 L64.287,48.213 C63.375,47.3 63.375,45.807 64.287,44.894 L92.857,16.308 C92.928,16.236 92.964,16.158 93.026,16.082 C92.615,16.455 92.085,16.697 91.49,16.697 L79.221,16.697 C77.95,16.697 76.909,15.656 76.909,14.389 L76.909,2.117 C76.909,1.508 77.159,0.958 77.549,0.545 C77.505,0.586 77.457,0.6 77.413,0.646 L48.704,29.314 C47.793,30.226 46.298,30.226 45.385,29.314 L16.666,0.666 C16.642,0.641 16.612,0.631 16.588,0.607 C16.948,1.017 17.184,1.535 17.187,2.117 L17.188,14.39 C17.189,15.657 16.149,16.698 14.88,16.698 L2.61,16.698 C2.008,16.698 1.47,16.452 1.057,16.074 C1.078,16.092 1.083,16.114 1.103,16.134 L29.806,44.895 C30.72,45.808 30.72,47.301 29.806,48.214 L1.045,76.98 C0.777,77.248 0.619,77.517 0.505,77.792 C0.866,76.984 1.672,76.412 2.61,76.412 L14.875,76.412 C16.146,76.412 17.184,77.452 17.186,78.722 L17.187,90.993 C17.188,91.626 16.929,92.202 16.512,92.62 C16.55,92.583 16.593,92.572 16.633,92.532 L45.386,63.796 C46.299,62.885 47.794,62.885 48.705,63.796 L77.488,92.568 C77.759,92.839 78.028,92.995 78.305,93.108 C77.488,92.75 76.91,91.937 76.91,90.993 Z"></path>
                    <path d="M93.615,77.828 C93.728,78.097 93.788,78.391 93.792,78.698 C93.776,78.394 93.725,78.104 93.615,77.828 Z"></path>
                    <path d="M0.454,77.964 C0.385,78.181 0.335,78.404 0.319,78.64 C0.326,78.402 0.379,78.179 0.454,77.964 Z"></path>
                </g>
                <g transform="translate(0.000000, 14.000000)" fill="#515E66" id="Shape">
                    <path d="M14.875,0.81 L2.61,0.81 C1.339,0.81 0.299,1.85 0.299,3.117 L0.299,15.39 C0.299,16.657 1.339,17.698 2.61,17.698 L14.88,17.698 C16.149,17.698 17.189,16.657 17.188,15.39 L17.187,3.117 C17.184,1.85 16.146,0.81 14.875,0.81 Z"></path>
                    <path d="M91.488,0.81 L79.222,0.81 C77.951,0.81 76.91,1.85 76.91,3.117 L76.91,15.39 C76.91,16.657 77.95,17.698 79.222,17.698 L91.491,17.698 C92.762,17.698 93.8,16.657 93.8,15.39 L93.8,3.117 C93.792,1.85 92.757,0.81 91.488,0.81 Z"></path>
                    <path d="M14.875,77.412 L2.61,77.412 C1.339,77.412 0.299,78.452 0.299,79.722 L0.299,91.993 C0.299,93.261 1.339,94.303 2.61,94.303 L14.88,94.303 C16.149,94.303 17.189,93.261 17.188,91.993 L17.187,79.722 C17.184,78.452 16.146,77.412 14.875,77.412 Z"></path>
                    <path d="M91.488,77.412 L79.222,77.412 C77.951,77.412 76.91,78.452 76.91,79.722 L76.91,91.993 C76.91,93.261 77.95,94.303 79.222,94.303 L91.491,94.303 C92.762,94.303 93.8,93.261 93.8,91.993 L93.8,79.722 C93.792,78.452 92.757,77.412 91.488,77.412 Z"></path>
                </g>
            </g>
        </g>
    </g>
</svg>