<?xml version="1.0" encoding="UTF-8"?>
<svg width="3152px" height="600px" viewBox="0 0 3152 600" version="1.1" xmlns="http://www.w3.org/2000/svg" xmlns:xlink="http://www.w3.org/1999/xlink">
    <!-- Generator: Sketch 51.3 (57544) - http://www.bohemiancoding.com/sketch -->
    <title>Group 6</title>
    <desc>Created with Sketch.</desc>
    <defs></defs>
    <g id="Brand" stroke="none" stroke-width="1" fill="none" fill-rule="evenodd">
        <g id="Cores" transform="translate(-424.000000, -273.000000)">
            <g id="Group-6" transform="translate(424.500000, 273.000000)">
                <g id="Group-5" transform="translate(675.750000, 181.500000)" fill="#202328">
                    <path d="M2460.50852,284.958775 C2435.10387,320.903744 2398.15939,338.875962 2349.67404,338.875962 C2307.03894,338.875962 2272.82821,325.73962 2247.04085,299.466543 C2221.25349,273.193466 2208.36,240.089885 2208.36,200.154808 C2208.36,160.570038 2221.08157,127.554033 2246.52511,101.105802 C2271.96864,74.657571 2304.63214,61.4336538 2344.5166,61.4336538 C2382.33806,61.4336538 2413.5403,74.7451466 2438.12426,101.368531 C2462.70821,127.991916 2475,160.920346 2475,200.154808 C2475,208.9125 2474.14043,218.195515 2472.42128,228.00413 L2277.98553,228.00413 C2286.92515,260.933054 2311.16491,277.397268 2350.70553,277.397268 C2376.14906,277.397268 2395.40334,268.639707 2408.46894,251.124323 L2460.50852,284.958775 Z M2277.21387,175.117331 L2408.84628,175.117331 C2405.06075,157.349143 2397.23171,144.110299 2385.35893,135.400403 C2373.48614,126.690507 2359.9789,122.335624 2344.8368,122.335624 C2326.94158,122.335624 2312.14384,126.9518 2300.44312,136.18429 C2288.7424,145.41678 2280.9994,158.39433 2277.21387,175.117331 Z M1777.38,68.0394231 L1777.38,219.972115 C1777.38,249.15824 1801.01937,272.818269 1830.18,272.818269 C1859.34063,272.818269 1882.98,249.15824 1882.98,219.972115 L1882.98,68.0394231 L1948.98,68.0394231 L1948.98,219.978974 C1948.98,285.643967 1895.7945,338.875962 1830.18685,338.875962 C1764.57824,338.875962 1711.39101,285.644941 1711.38769,219.978974 L1711.38,68.0394231 L1777.38,68.0394231 Z M1550.738,342.178846 C1511.96124,342.178846 1479.2111,328.779778 1452.48658,301.981239 C1425.76206,275.1827 1412.4,242.341847 1412.4,203.457692 C1412.4,164.573538 1425.76206,131.732684 1452.48658,104.934146 C1479.2111,78.1356068 1511.96124,64.7365385 1550.738,64.7365385 C1589.51475,64.7365385 1622.35223,78.1356068 1649.25142,104.934146 C1676.15061,131.732684 1689.6,164.573538 1689.6,203.457692 C1689.6,242.341847 1676.15061,275.1827 1649.25142,301.981239 C1622.35223,328.779778 1589.51475,342.178846 1550.738,342.178846 Z M1550.73804,274.509991 C1570.99612,274.509991 1587.93582,267.816725 1601.55763,254.429993 C1615.17944,241.043261 1621.99024,224.052664 1621.99024,203.457692 C1621.99024,182.86272 1615.17944,165.872123 1601.55763,152.485391 C1587.93582,139.09866 1570.99612,132.405394 1550.73804,132.405394 C1530.47996,132.405394 1513.62759,139.09866 1500.18042,152.485391 C1486.73324,165.872123 1480.00976,182.86272 1480.00976,203.457692 C1480.00976,224.052664 1486.73324,241.043261 1500.18042,254.429993 C1513.62759,267.816725 1530.47996,274.509991 1550.73804,274.509991 Z M1219.02,338.875962 L1153.02,338.875962 L1153.02,27.0836538 L1219.02,0 L1219.02,80.3997898 C1234.92353,72.4889915 1252.84963,68.0404037 1271.81386,68.0394232 C1337.43143,68.0394231 1390.62,121.274488 1390.62,186.943269 L1390.62,338.875962 L1324.62,338.875962 L1324.62,186.943269 C1324.62,157.757144 1300.98063,134.097115 1271.82,134.097115 C1242.65937,134.097115 1219.02,157.757144 1219.02,186.943269 L1219.02,338.875962 Z M2124.39066,148.754917 C2115.8347,130.463851 2101.57499,121.318455 2081.61109,121.318455 C2072.69864,121.318455 2065.30142,123.290991 2059.4192,127.236123 C2053.53698,131.181255 2050.59591,136.5609 2050.59591,143.375219 C2050.59591,150.548186 2055.31944,156.376134 2064.76664,160.859238 C2074.21384,165.342343 2085.71074,169.287416 2099.25766,172.694575 C2112.80459,176.101734 2126.35132,180.40545 2139.89825,185.605851 C2153.44518,190.806252 2164.94207,199.503344 2174.38927,211.697389 C2183.83647,223.891433 2188.56,239.133759 2188.56,257.424825 C2188.56,285.040749 2178.31083,306.290345 2157.81219,321.174252 C2137.31355,336.058158 2111.73519,343.5 2081.07635,343.5 C2027.84282,343.5 1991.03341,323.437096 1970.64707,283.310704 L2028.67131,245.596369 C2036.51435,268.901632 2053.98249,281.218105 2081.07635,281.218105 C2105.67472,281.218105 2117.97372,272.846704 2117.97372,257.424825 C2117.97372,250.251858 2113.25019,244.42391 2103.80299,239.940805 C2094.35579,235.457701 2082.8589,231.422967 2069.31197,227.836484 C2055.76504,224.25 2042.21832,219.766963 2028.67139,214.387238 C2015.12446,209.007512 2003.62757,200.489742 1994.18036,188.83367 C1984.73316,177.177599 1980.00964,162.562897 1980.00964,144.989128 C1980.00964,118.44915 1989.72406,97.5581965 2009.15321,82.3156414 C2028.58236,67.0730863 2052.73475,59.4519231 2081.61109,59.4519231 C2103.35748,59.4519231 2123.14283,64.383264 2140.96774,74.2460937 C2157.43542,83.3579503 2170.70803,96.0664357 2180.78589,112.371883 L2124.39066,148.754917 Z" id="Combined-Shape"></path>
                    <path d="M1066.56,338.875962 C1053.87758,338.875962 1043.0071,334.342636 1033.94824,325.275848 C1024.88937,316.209061 1020.36,305.329079 1020.36,292.635577 C1020.36,279.942075 1024.88937,269.062093 1033.94824,259.995305 C1043.0071,250.928518 1053.87758,246.395192 1066.56,246.395192 C1079.24242,246.395192 1090.1129,250.928518 1099.17176,259.995305 C1108.23063,269.062093 1112.76,279.942075 1112.76,292.635577 C1112.76,305.329079 1108.23063,316.209061 1099.17176,325.275848 C1090.1129,334.342636 1079.24242,338.875962 1066.56,338.875962 Z M980.1,134.097115 L844.8,134.097115 C806.526667,134.097115 775.5,165.150903 775.5,203.457692 C775.5,241.764481 806.526667,272.818269 844.8,272.818269 C883.073333,272.818269 914.1,241.764481 914.1,203.457692 L914.1,170.428846 L980.1,170.428846 L980.1,338.875962 L914.1,338.875962 L914.1,319.788433 C893.830863,331.910248 870.128186,338.875962 844.8,338.875962 C770.075873,338.875962 709.5,278.247137 709.5,203.457692 C709.5,128.668247 770.075873,68.0394231 844.8,68.0394231 L980.1,68.0394231 L980.1,134.097115 Z M629.64,134.097115 L629.713132,253.000962 C630.725639,266.668429 642.125731,277.442308 656.04,277.442308 L687.06,277.442308 L687.06,338.875962 L629.64,338.875962 C593.189207,338.875962 563.64,309.300925 563.64,272.818269 L563.64,27.0836538 L629.64,0 L629.64,68.0394231 L687.06,68.0394231 L687.06,134.097115 L629.64,134.097115 Z M526.68,134.097115 L391.38,134.097115 C353.106667,134.097115 322.08,165.150903 322.08,203.457692 C322.08,241.764481 353.106667,272.818269 391.38,272.818269 C429.653333,272.818269 460.68,241.764481 460.68,203.457692 L460.68,170.428846 L526.68,170.428846 L526.68,338.875962 L460.68,338.875962 L460.68,319.788433 C440.410863,331.910248 416.708186,338.875962 391.38,338.875962 C316.655873,338.875962 256.08,278.247137 256.08,203.457692 C256.08,128.668247 316.655873,68.0394231 391.38,68.0394231 L526.68,68.0394231 L526.68,134.097115 Z M66,338.875962 L0,338.875962 L0,68.2372399 L66,68.0394231 L66,80.3997898 C81.9035326,72.4889915 99.8296336,68.0404037 118.793864,68.0394232 C184.411428,68.0394231 237.6,121.274488 237.6,186.943269 L237.6,338.875962 L171.6,338.875962 L171.6,186.943269 C171.6,157.757144 147.960635,134.097115 118.8,134.097115 C89.6393652,134.097115 66,157.757144 66,186.943269 L66,338.875962 Z" id="Combined-Shape"></path>
                </g>
                <polygon id="Combined-Shape" fill="#15E1D5" points="530.995925 284.708307 530.998664 563.388886 531 599.244875 464.954054 599.25 317.017502 503.183868 317.017502 275.705083 339.469295 255.563754 383.058738 295.846413 383.058738 467.326511 464.954054 520.503862 464.954054 315.504232 383.058738 246.793668 339.469295 208.241561 213.985116 315.50201 213.984536 563.388886 213.985872 599.244875 147.939926 599.25 0.00337435256 503.183868 0 167.954807 0.00273917703 160.690515 191.527883 -1.13686838e-13 310.887823 100.141069 259.993708 143.646034 191.529369 86.204125 66.04461 191.48644 66.04461 467.326511 147.939926 520.503862 147.939926 285.078279 213.984885 229.298568 339.469295 124.373627 464.954766 229.656539"></polygon>
            </g>
        </g>
    </g>
</svg>