<svg width="7608" height="1688" viewBox="0 0 7608 1688" fill="none" xmlns="http://www.w3.org/2000/svg">
<g id="logo">
<g id="Canvas">
<g id="Logo Tampa">
<g id="Rectangle">
<path id="Vector" d="M626.116 372.083H995.48V1633.55L626.116 1353.73V372.083Z" fill="#ED1965"/>
</g>
<g id="Rectangle_2">
<path id="Vector_2" d="M2292.76 18.1533L2644.11 335.788V1243.31H2292.76V18.1533Z" fill="#ED1965"/>
</g>
<g id="Rectangle_3">
<path id="Vector_3" d="M3067.53 0H3373.83V1551.87L3067.53 1315.91V0Z" fill="#ED1965"/>
</g>
<g id="Rectangle_4">
<path id="Vector_4" d="M3644.1 117.981L3950.4 381.164V1570.02L3644.1 1279.62V117.981Z" fill="#ED1965"/>
</g>
<g id="Rectangle_5">
<path id="Vector_5" d="M4211.65 108.905L4517.95 381.163V1615.4H4211.65V108.905Z" fill="#ED1965"/>
</g>
<g id="Rectangle_6">
<path id="Vector_6" d="M4950.38 417.462H5328.75V1688L4950.38 1324.99V417.462Z" fill="#ED1965"/>
</g>
<g id="Rectangle_7">
<path id="Vector_7" d="M6626.04 63.5264L7004.41 308.559V1324.99H6626.04V63.5264Z" fill="#ED1965"/>
</g>
<g id="Rectangle_8">
<path id="Vector_8" d="M0 326.71L409.904 36.3013L1418.9 36.3013L1653.13 326.71L0 326.71Z" fill="#ED1965"/>
</g>
<g id="Rectangle_9">
<path id="Vector_9" d="M4653.08 363.012L5012.72 72.6031L5898 72.6031L6103.51 363.012L4653.08 363.012Z" fill="#ED1965"/>
</g>
<g id="Rectangle_10">
<path id="Vector_10" d="M2932.39 1315.92L2583.92 1606.32H1726.14L1527.01 1315.92H2932.39Z" fill="#ED1965"/>
</g>
<g id="Rectangle_11">
<path id="Vector_11" d="M7608 1356.75L7216.11 1642.62H6193.6L5990.91 1356.75H7608Z" fill="#ED1965"/>
</g>
<g id="Rectangle 2">
<path id="Vector_12" d="M3445.9 503.676L3581.03 254.106V1143.48L3445.9 1402.13V503.676Z" fill="#ED1965"/>
</g>
<g id="Rectangle 2_2">
<path id="Vector_13" d="M4013.45 503.676L4148.58 254.106V1143.48L4013.45 1402.13V503.676Z" fill="#ED1965"/>
</g>
<g id="Rectangle 3">
<path id="Vector_14" d="M1599.07 843.998L1851.32 635.267V1252.38H1536.01L1599.07 843.998Z" fill="#ED1965"/>
</g>
<g id="Rectangle 3_2">
<path id="Vector_15" d="M6031.44 825.849L5779.19 1034.58V417.462H6094.51L6031.44 825.849Z" fill="#ED1965"/>
</g>
<g id="Polygon">
<path id="Vector_16" d="M1049.53 1297.76H1391.87L1049.53 1570.02V1297.76Z" fill="#ED1965"/>
</g>
<g id="Polygon_2">
<path id="Vector_17" d="M5382.81 1352.21H5725.15L5382.81 1624.47V1352.21Z" fill="#ED1965"/>
</g>
<g id="Polygon_3">
<path id="Vector_18" d="M6571.98 363.012L6229.64 363.012L6571.98 90.7536V363.012Z" fill="#ED1965"/>
</g>
<g id="Polygon_4">
<path id="Vector_19" d="M2229.7 326.71L1887.36 326.71L2229.7 54.4519V326.71Z" fill="#ED1965"/>
</g>
<g id="Polygon_5">
<path id="Vector_20" d="M1288.27 372.083H1581.06L1175.66 707.868L1288.27 372.083Z" fill="#ED1965"/>
</g>
<g id="Polygon_6">
<path id="Vector_21" d="M6342.25 1297.76H6049.46L6454.86 961.979L6342.25 1297.76Z" fill="#ED1965"/>
</g>
<g id="Polygon_7">
<path id="Vector_22" d="M1896.38 934.752L2207.18 889.376L1896.38 662.494V934.752Z" fill="#ED1965"/>
</g>
<g id="Polygon_8">
<path id="Vector_23" d="M5738.65 1011.89L5432.35 780.468L5725.14 739.63L5738.65 1011.89Z" fill="#ED1965"/>
</g>
</g>
</g>
</g>
</svg>
